<svg xmlns="http://www.w3.org/2000/svg" width="18" height="22" viewBox="0 0 18 22"><path d="M3.557 21.252h11.2q1.535 0 2.3-.762c.766-.762.767-1.263.767-2.265V8.479q0-1.504-.766-2.266c-.766-.762-1.278-.762-2.3-.762h-2.725v1.572h2.696q.722 0 1.123.391c.4.391.4.645.4 1.152v9.57q0 .763-.4 1.153-.401.39-1.123.39H3.576q-.732 0-1.123-.39-.39-.39-.39-1.152v-9.57q0-.762.39-1.153t1.123-.39h2.705V5.45H3.557q-1.534 0-2.3.757C.49 6.965.49 7.469.49 8.478v9.747q0 1.514.767 2.27c.767.756 1.278.757 2.3.757m5.605-6.426a.7.7 0 0 0 .278-.054.9.9 0 0 0 .278-.2l3.302-3.193q.117-.107.175-.23a.5.5 0 0 0 .059-.278.64.64 0 0 0-.205-.493.72.72 0 0 0-.508-.19.67.67 0 0 0-.527.234l-1.485 1.572-.654.694.059-1.465V.93a.73.73 0 0 0-.23-.537.75.75 0 0 0-.542-.225.76.76 0 0 0-.552.225.73.73 0 0 0-.23.537v10.293l.06 1.465-.655-.694-1.484-1.572a.68.68 0 0 0-.537-.234.7.7 0 0 0-.503.19.65.65 0 0 0-.2.493q0 .156.058.278c.058.122.098.158.176.23l3.3 3.193a.9.9 0 0 0 .278.2.8.8 0 0 0 .288.054"/></svg>