<svg xmlns="http://www.w3.org/2000/svg" width="22.976" height="17.479"><g fill-opacity=".85"><path d="M19.322 15.677c.439.28.98.172 1.283-.27 1.271-1.797 2.01-4.2 2.01-6.672s-.73-4.892-2.01-6.674c-.304-.441-.844-.548-1.283-.27-.46.29-.525.862-.188 1.368 1.04 1.516 1.64 3.513 1.64 5.576 0 2.062-.616 4.041-1.64 5.573-.33.506-.272 1.08.188 1.37M15.428 13.067a.9.9 0 0 0 1.245-.251c.787-1.048 1.254-2.538 1.254-4.081s-.467-3.026-1.254-4.085c-.299-.425-.842-.524-1.245-.248-.476.312-.561.887-.188 1.433.54.767.844 1.81.844 2.9 0 1.088-.314 2.122-.844 2.9-.365.552-.288 1.112.187 1.432M10.684 17.479c.729 0 1.258-.53 1.258-1.25V1.31c0-.721-.53-1.3-1.274-1.3-.498 0-.845.212-1.38.714L5.194 4.549a.32.32 0 0 1-.225.084H2.204C.773 4.634 0 5.432 0 6.94v3.626c0 1.516.773 2.308 2.204 2.308h2.763c.09 0 .169.024.225.079l4.096 3.862c.482.465.891.665 1.396.665"/></g></svg>