<svg xmlns="http://www.w3.org/2000/svg" width="28" height="28" viewBox="0 0 28 28"><path d="M9.98 12.701q.602 0 1.04-.478.437-.48.437-1.23c0-.75-.146-.912-.437-1.231q-.438-.48-1.04-.479-.6 0-1.032.479-.43.479-.43 1.23c0 .751.143.912.43 1.23q.43.48 1.032.48m7.985 0q.6 0 1.039-.478.438-.48.437-1.23c0-.75-.145-.912-.437-1.231q-.438-.48-1.04-.479-.6 0-1.031.479t-.431 1.23c-.001.751.144.912.43 1.23q.432.48 1.033.48M9.16 17.992q0 .451.595 1.114t1.675 1.176 2.502.513 2.502-.513 1.674-1.176.595-1.114q0-.246-.191-.342a.46.46 0 0 0-.41 0q-.753.41-1.716.787-.964.376-2.454.376c-1.49 0-1.812-.126-2.454-.376q-.964-.376-1.703-.787-.232-.095-.423 0c-.191.095-.192.178-.192.342m4.785 9.899q2.858 0 5.38-1.094c2.522-1.094 3.165-1.736 4.45-3.022q1.929-1.927 3.022-4.45c1.093-2.523 1.094-3.475 1.094-5.38s-.365-3.698-1.094-5.38a14.3 14.3 0 0 0-3.021-4.45q-1.928-1.928-4.458-3.021C16.788 0 15.837 0 13.932 0s-3.699.365-5.38 1.094a14.2 14.2 0 0 0-4.443 3.021 14.3 14.3 0 0 0-3.015 4.45Q-.001 11.088 0 13.945c.001 2.857.365 3.699 1.094 5.38s1.736 3.165 3.021 4.45a14.3 14.3 0 0 0 4.45 3.021q2.523 1.095 5.38 1.095m0-2.325q-2.42 0-4.525-.902a11.7 11.7 0 0 1-3.698-2.495 11.6 11.6 0 0 1-2.488-3.698q-.896-2.105-.896-4.526c0-2.42.298-3.121.895-4.525q.896-2.106 2.482-3.705C7.3 4.115 8.003 3.817 9.406 3.22q2.105-.896 4.526-.896t4.525.896a11.715 11.715 0 0 1 6.207 6.2q.902 2.106.902 4.525c0 2.42-.298 3.122-.895 4.526a11.6 11.6 0 0 1-2.488 3.698 11.7 11.7 0 0 1-3.705 2.495q-2.113.902-4.533.902"/></svg>