<svg xmlns="http://www.w3.org/2000/svg" width="8" height="32" viewBox="0 0 8 32"><path d="M4 8q1.717 0 2.859-1.134Q7.999 5.732 8 4.004q0-1.094-.538-2.006A4.1 4.1 0 0 0 6.014.543 3.86 3.86 0 0 0 4 0Q2.94 0 2.033.543a4.3 4.3 0 0 0-1.47 1.455A3.75 3.75 0 0 0 0 4.004Q-.002 5.07.561 5.98a4.4 4.4 0 0 0 1.47 1.465Q2.942 8 4 8m0 12q1.717 0 2.859-1.134Q7.999 17.732 8 16.004q0-1.095-.538-2.006a4.1 4.1 0 0 0-1.448-1.455A3.86 3.86 0 0 0 4 12q-1.06 0-1.967.543a4.3 4.3 0 0 0-1.47 1.455A3.75 3.75 0 0 0 0 16.004q-.002 1.066.561 1.976a4.4 4.4 0 0 0 1.47 1.465Q2.942 20 4 20m0 12q1.717 0 2.859-1.134Q7.999 29.732 8 28.004q0-1.095-.538-2.006a4.1 4.1 0 0 0-1.448-1.455A3.86 3.86 0 0 0 4 24q-1.06 0-1.967.543a4.3 4.3 0 0 0-1.47 1.455A3.75 3.75 0 0 0 0 28.004q-.002 1.066.561 1.976a4.4 4.4 0 0 0 1.47 1.465Q2.942 32 4 32"/></svg>