<svg xmlns="http://www.w3.org/2000/svg" width="19" height="22" viewBox="0 0 19 22"><path d="M4.8 19.807h9.835a3 3 0 0 0 .352-.02L3.716 8.517q-.43.225-.64.665c-.21.44-.21.67-.21 1.132v7.452q0 1.055.479 1.547.478.494 1.455.494M9.655.02q-1.122 0-2.124.445c-1.002.445-1.246.737-1.738 1.323s-.845 1.322-1.06 2.207a.1.1 0 0 1-.005.034l-.014.044L6.02 5.383q0-.06.005-.112c.005-.052.005-.074.005-.113q.108-1.172.62-1.982.513-.81 1.294-1.23t1.71-.42q1.005 0 1.83.488c.825.488.99.802 1.319 1.43q.492.943.493 2.3v2.51l-4.385.01 7.52 7.529v-5.488q0-.948-.391-1.446-.39-.498-1.172-.586V5.96q0-1.494-.425-2.612c-.425-1.118-.67-1.364-1.162-1.856A4.8 4.8 0 0 0 11.607.387 5.3 5.3 0 0 0 9.654.022m7.979 20.811q.214.215.532.215a.72.72 0 0 0 .532-.215q.215-.225.215-.537c0-.312-.072-.384-.215-.527L1.95 3.029a.74.74 0 0 0-.532-.22.72.72 0 0 0-.542.22q-.215.215-.215.533c0 .318.072.389.215.532Z"/></svg>