<svg xmlns="http://www.w3.org/2000/svg" viewBox="0 0 25.645 21.694"><path d="m19.51 2.647.478 2.706h-1.94l-.391-2.213c-.166-.932-.746-1.301-1.628-1.156L3.13 4.256c-.9.163-1.304.71-1.14 1.653l1.556 8.812c.163.93.737 1.308 1.627 1.155l.38-.067v1.943l-.157.028c-2.087.364-3.35-.515-3.705-2.569L.08 6.074c-.364-2.053.522-3.31 2.6-3.681L15.814.08c2.07-.364 3.34.515 3.697 2.567"/><path d="M12.741 13.088c1.13 0 2.051-.937 2.051-2.07 0-1.115-.92-2.052-2.05-2.052a2.06 2.06 0 0 0-2.047 2.05c0 1.135.912 2.072 2.046 2.072m-3.75 7.163h12.775c1.69 0 2.561-.85 2.561-2.562v-.55l-4.525-4.259a1.88 1.88 0 0 0-2.566-.008l-3.848 3.408-1.527-1.384c-.365-.33-.749-.48-1.157-.48-.373 0-.743.15-1.098.46l-3.177 2.788c0 1.74.868 2.587 2.562 2.587m-.24.721h13.336c2.102 0 3.197-1.086 3.197-3.171V8.525c0-2.084-1.095-3.172-3.197-3.172H8.751c-2.11 0-3.197 1.088-3.197 3.172V17.8c0 2.093 1.088 3.171 3.197 3.171m.12-1.913c-.91 0-1.404-.469-1.404-1.417V8.694c0-.951.494-1.427 1.403-1.427h13.098c.9 0 1.401.476 1.401 1.427v8.948c0 .948-.5 1.417-1.4 1.417Z"/></svg>